<svg width="150" height="60" viewBox="0 0 150 60" xmlns="http://www.w3.org/2000/svg">
  <defs>
    <linearGradient id="lnkGrad" x1="0%" y1="0%" x2="100%" y2="100%">
      <stop offset="0%" stop-color="#0062E6"/>
      <stop offset="100%" stop-color="#33AEFF"/>
    </linearGradient>
    <filter id="shadow29" x="-20%" y="-20%" width="140%" height="140%">
      <feDropShadow dx="0" dy="6" stdDeviation="5" flood-color="#0062E6" flood-opacity="0.35"/>
    </filter>
  </defs>
  
  <!-- "Button 29" style: vibrant gradient + soft shadow + rounded rectangle -->
  <rect x="10" y="10" width="130" height="40" rx="8" fill="url(#lnkGrad)" filter="url(#shadow29)"/>
  
  <!-- LinkedIn Icon -->
  <g transform="translate(25, 20) scale(0.8)">
    <path fill="#ffffff" d="M20.447 20.452h-3.554v-5.569c0-1.328-.027-3.037-1.852-3.037-1.853 0-2.136 1.445-2.136 2.939v5.667H9.351V9h3.414v1.561h.046c.477-.9 1.637-1.85 3.37-1.85 3.601 0 4.267 2.37 4.267 5.455v6.286zM5.337 7.433c-1.144 0-2.063-.926-2.063-2.065 0-1.138.92-2.063 2.063-2.063 1.14 0 2.064.925 2.064 2.063 0 1.139-.925 2.065-2.064 2.065zm1.782 13.019H3.555V9h3.564v11.452zM22.225 0H1.771C.792 0 0 .774 0 1.729v20.542C0 23.227.792 24 1.771 24h20.451C23.2 24 24 23.227 24 22.271V1.729C24 .774 23.2 0 22.222 0h.003z"/>
  </g>
  
  <!-- Text -->
  <text x="85" y="35" font-family="system-ui, -apple-system, sans-serif" font-size="15" font-weight="600" fill="#ffffff" text-anchor="middle">LinkedIn</text>
</svg>
