<svg width="150" height="60" viewBox="0 0 150 60" xmlns="http://www.w3.org/2000/svg">
  <defs>
    <filter id="shadowMed" x="-20%" y="-20%" width="140%" height="140%">
      <feDropShadow dx="0" dy="5" stdDeviation="4" flood-color="#000000" flood-opacity="0.3"/>
    </filter>
  </defs>

  <!-- "Button 34" style: Pill shape + solid dark color + soft shadow -->
  <rect x="10" y="10" width="130" height="40" rx="20" fill="#1A1A1A" filter="url(#shadowMed)"/>
  
  <!-- Medium Icon -->
  <g transform="translate(25, 20) scale(0.8)">
    <path fill="#ffffff" d="M13.54 12a6.8 6.8 0 01-6.77 6.82A6.8 6.8 0 010 12a6.8 6.8 0 016.77-6.82A6.8 6.8 0 0113.54 12zM20.96 12c0 3.54-1.51 6.42-3.38 6.42-1.87 0-3.39-2.88-3.39-6.42s1.52-6.42 3.39-6.42 3.38 2.88 3.38 6.42M24 12c0 3.17-.53 5.75-1.19 5.75-.66 0-1.19-2.58-1.19-5.75s.53-5.75 1.19-5.75C23.47 6.25 24 8.83 24 12z"/>
  </g>
  
  <!-- Text -->
  <text x="85" y="35" font-family="system-ui, -apple-system, sans-serif" font-size="15" font-weight="600" fill="#ffffff" text-anchor="middle">Medium</text>
</svg>
