<svg width="150" height="60" viewBox="0 0 150 60" xmlns="http://www.w3.org/2000/svg">
  <defs>
    <linearGradient id="topmateGrad" x1="0%" y1="0%" x2="100%" y2="100%">
      <stop offset="0%" stop-color="#FF6B6B"/>
      <stop offset="100%" stop-color="#FF4C4C"/>
    </linearGradient>
    <filter id="shadowTop" x="-20%" y="-20%" width="140%" height="140%">
      <feDropShadow dx="0" dy="5" stdDeviation="4" flood-color="#FF4C4C" flood-opacity="0.4"/>
    </filter>
  </defs>

  <!-- Button Base: Pill shape with vibrant coral gradient -->
  <rect x="10" y="10" width="130" height="40" rx="20" fill="url(#topmateGrad)" filter="url(#shadowTop)"/>
  
  <!-- Calendar Icon to signify booking -->
  <g transform="translate(22, 18) scale(0.85)">
    <path fill="#ffffff" d="M19 3h-1V1h-2v2H8V1H6v2H5c-1.1 0-2 .9-2 2v14c0 1.1.9 2 2 2h14c1.1 0 2-.9 2-2V5c0-1.1-.9-2-2-2zm0 16H5V8h14v11z"/>
  </g>
  
  <!-- Text -->
  <text x="83" y="35" font-family="system-ui, -apple-system, sans-serif" font-size="15" font-weight="600" fill="#ffffff" text-anchor="middle">Topmate</text>
</svg>
